HIERARCHY
ROOT Hips
{
  OFFSET -102.467 93.6631 130.069
  CHANNELS 6 Xposition Yposition Zposition Zrotation Xrotation Yrotation
  JOINT LeftUpLeg
  {
    OFFSET 8.64259 1.95398 -2.38835
    CHANNELS 3 Zrotation Xrotation Yrotation
    JOINT LeftLeg
    {
      OFFSET 43.7702 0 0
      CHANNELS 3 Zrotation Xrotation Yrotation
      JOINT LeftFoot
      {
        OFFSET 40.6238 0 0
        CHANNELS 3 Zrotation Xrotation Yrotation
        JOINT LeftToeBase
        {
          OFFSET 12.7242 0 0
          CHANNELS 3 Zrotation Xrotation Yrotation
          End Site
          {
            OFFSET 0 0 0
          }
        }
      }
    }
  }
  JOINT RightUpLeg
  {
    OFFSET -8.2249 1.95398 -2.59336
    CHANNELS 3 Zrotation Xrotation Yrotation
    JOINT RightLeg
    {
      OFFSET 43.5653 0 0
      CHANNELS 3 Zrotation Xrotation Yrotation
      JOINT RightFoot
      {
        OFFSET 40.6238 0 0
        CHANNELS 3 Zrotation Xrotation Yrotation
        JOINT RightToeBase
        {
          OFFSET 12.7242 0 0
          CHANNELS 3 Zrotation Xrotation Yrotation
          End Site
          {
            OFFSET 0 0 0
          }
        }
      }
    }
  }
  JOINT Spine
  {
    OFFSET 0.165834 0.87714 6.61349
    CHANNELS 3 Zrotation Xrotation Yrotation
    JOINT Spine1
    {
      OFFSET 7.38963 1.71661e-005 0
      CHANNELS 3 Zrotation Xrotation Yrotation
      JOINT Spine2
      {
        OFFSET 11.9445 1.14441e-005 0
        CHANNELS 3 Zrotation Xrotation Yrotation
        JOINT Spine3
        {
          OFFSET 14.7254 4.19617e-005 0
          CHANNELS 3 Zrotation Xrotation Yrotation
          JOINT Spine4
          {
            OFFSET 10.9679 0 0
            CHANNELS 3 Zrotation Xrotation Yrotation
            JOINT RightShoulder
            {
              OFFSET 2.46616 -1.6653 3.69651
              CHANNELS 3 Zrotation Xrotation Yrotation
              JOINT RightArm
              {
                OFFSET 13.0012 0 0
                CHANNELS 3 Zrotation Xrotation Yrotation
                JOINT RightForeArm
                {
                  OFFSET 28.7848 1.52588e-005 0
                  CHANNELS 3 Zrotation Xrotation Yrotation
                  JOINT RightHand
                  {
                    OFFSET 26.5688 1.52588e-005 0
                    CHANNELS 3 Zrotation Xrotation Yrotation
                    End Site
                    {
                      OFFSET 0 0 0
                    }
                  }
                }
              }
            }
            JOINT LeftShoulder
            {
              OFFSET 2.38034 -1.29275 -3.7523
              CHANNELS 3 Zrotation Xrotation Yrotation
              JOINT LeftArm
              {
                OFFSET 16.3182 6.10351e-005 0
                CHANNELS 3 Zrotation Xrotation Yrotation
                JOINT LeftForeArm
                {
                  OFFSET 27.0901 0 0
                  CHANNELS 3 Zrotation Xrotation Yrotation
                  JOINT LeftHand
                  {
                    OFFSET 24.5451 1.52588e-005 0
                    CHANNELS 3 Zrotation Xrotation Yrotation
                    End Site
                    {
                      OFFSET 0 0 0
                    }
                  }
                }
              }
            }
            JOINT Neck
            {
              OFFSET 5.0226 -0.0266342 0
              CHANNELS 3 Zrotation Xrotation Yrotation
              JOINT Head
              {
                OFFSET 6.69363 2.86102e-005 0
                CHANNELS 3 Zrotation Xrotation Yrotation
                End Site
                {
                  OFFSET 0 0 0
                }
              }
            }
          }
        }
      }
    }
  }
}
MOTION
Frames:	12
Frame Time:	0.0416667
-188.135 98.7152 -196.866 94.8377 -42.1338 93.0839 -174.024 -1.1914 89.5355 -10.0301 -0.951831 0.98082 64.6333 2.04723 -2.36081 26.8662 0.245301 0.498351 174.259 2.54652 87.9696 -17.0941 2.02605 0.46478 66.1633 1.7359 6.71232 26.2539 0.965236 2.66967 -0.435598 7.33629 -90.0574 12.2016 -0.892851 -0.0150559 0.530953 -0.892679 0.0242637 -22.0065 -0.847056 -0.282716 -1.99383 -0.847083 -0.282732 100.15 -50.4998 -85.2943 29.7527 -14.0866 -6.22176 0.414346 -3.15905 -15.1102 -12.9356 -0.619126 0.389219 -82.6185 -51.5481 89.7443 -29.3137 10.1613 -18.5541 1.48303 31.805 -7.01633 0.8193 -0.0354369 -2.3927 10.9658 -9.3426 6.58498 -20.7952 -8.97349 -11.8808 
-188.101 98.7183 -196.91 94.3646 -42.0718 92.7181 -174.263 -0.840113 89.3264 -10.0471 -0.876008 1.07365 64.7253 2.26371 -1.85856 26.4876 0.271499 0.141573 174.343 2.71811 87.919 -16.8261 2.70272 0.334452 66.7383 1.9854 7.79743 24.7686 1.20015 2.05515 -0.445709 7.30456 -90.0545 12.2651 -0.911587 -0.00643507 0.59445 -0.910994 0.0336899 -21.9431 -0.867503 -0.280131 -1.93045 -0.867511 -0.280124 100.201 -50.6231 -85.2095 29.56 -13.7005 -6.98468 0.604766 -3.6292 -13.7225 -13.4784 -0.353328 -2.20816 -82.8425 -52.2341 89.4705 -28.465 10.1869 -18.2852 1.65556 31.5981 -7.6058 2.3256 -0.0130798 -2.64582 10.8554 -9.28936 7.05923 -20.8957 -8.89155 -12.728 
-188.052 98.6736 -196.89 94.3034 -42.1639 92.4657 -174.364 -0.828165 89.1131 -10.089 -0.879335 1.01702 64.6537 2.22168 -1.75736 26.8058 0.246438 0.379519 174.291 3.0383 87.702 -17.3888 2.55732 0.288475 66.9887 1.96818 7.78166 24.9135 1.20137 2.30998 -0.444034 7.30859 -90.0268 12.2573 -0.895147 0.0469032 0.586631 -0.892235 0.0862536 -21.9509 -0.867856 -0.22432 -1.93825 -0.867863 -0.224323 100.061 -51.0306 -85.4102 29.1521 -13.732 -6.76789 0.664267 -3.19558 -14.3072 -13.7956 -0.495993 -1.03581 -83.008 -52.4267 89.2427 -28.2652 9.97459 -18.0995 1.28352 31.3935 -7.21569 -2.63039 -0.0944663 -3.69144 10.7052 -9.26641 6.85832 -20.6423 -8.83288 -12.791 
-187.892 98.6953 -196.858 94.6108 -42.0287 92.5694 -174.51 -1.45251 88.9224 -9.45087 -0.990521 1.11584 64.4073 2.16601 -1.90157 26.8481 0.245268 0.454289 174.161 2.70251 87.5359 -17.4366 2.39945 0.283481 67.224 1.79659 7.57233 24.6561 1.2255 2.05947 -0.474533 7.35484 -90.0095 12.165 -0.94766 0.0861662 0.49435 -0.94295 0.12779 -22.0435 -0.929766 -0.202656 -2.03085 -0.929735 -0.202651 100.002 -50.8802 -85.5075 29.3362 -13.8477 -6.72593 0.773765 -2.72371 -14.3919 -13.7141 -0.462536 -1.30183 -82.9067 -52.2172 89.3739 -28.3365 10.4436 -18.0335 1.28408 31.5313 -7.3622 -2.15834 -0.094203 -3.97933 10.4986 -9.23286 6.70133 -19.9268 -8.83666 -12.7642 
-187.829 98.7286 -196.874 94.3085 -42.1005 92.5197 -174.369 -1.25347 89.0682 -9.46004 -1.11128 1.04239 64.5051 2.25568 -1.84355 26.7674 0.237878 0.111816 174.255 2.65438 87.6566 -16.8665 2.686 0.264139 66.8219 1.98301 8.0338 24.8856 1.16216 1.94891 -0.45633 7.36202 -90.0184 12.1505 -0.915722 0.064782 0.479833 -0.911962 0.105017 -22.0578 -0.892857 -0.213455 -2.04517 -0.892845 -0.213446 100.151 -50.7697 -85.2815 29.5543 -13.745 -6.88848 0.775598 -2.8529 -14.3616 -14.107 -0.504516 -1.05767 -82.9488 -51.7864 89.2735 -28.7809 10.1787 -18.0589 1.35004 31.5407 -7.20837 -2.29832 -0.0930745 -3.70978 11.0052 -9.46186 6.19455 -20.2383 -9.02902 -12.0806 
-187.696 98.7371 -196.883 94.2251 -41.8419 92.5919 -174.392 -1.45052 89.0606 -8.94151 0.293928 1.02513 63.8618 2.76418 -0.314532 28.2397 0.0616287 -0.0397511 174.044 2.46376 87.6297 -16.5652 2.60622 0.511194 66.8309 1.75489 7.91438 24.7368 1.16626 1.72634 -0.475809 7.3837 -90.0356 12.1071 -0.962584 0.0352863 0.43646 -0.960106 0.0776121 -22.1014 -0.928697 -0.255666 -2.08877 -0.928696 -0.255682 100.423 -50.9331 -84.856 29.334 -14.0413 -7.03146 0.714968 -3.01132 -14.7479 -13.7848 -0.63535 0.17449 -82.961 -51.5284 89.2321 -28.9855 10.1486 -18.2155 1.16901 31.2607 -6.91753 -2.88247 -0.0937999 -3.56134 11.2089 -9.58844 6.12887 -20.6435 -9.08987 -12.1856 
-187.534 98.76 -196.809 94.5205 -41.8096 92.5454 -174.512 -1.64036 88.7475 -9.23508 0.765447 0.986176 63.7318 3.06525 0.206735 29.1761 -0.0120189 0.494526 173.885 2.41166 87.3198 -17.1516 2.72764 0.441493 67.2386 1.79713 8.1898 24.3291 1.2983 2.07782 -0.488549 7.45687 -90.0232 11.9609 -0.982203 0.0600918 0.290283 -0.978614 0.103259 -22.2477 -0.954861 -0.237904 -2.23508 -0.954867 -0.23792 100.267 -50.8565 -85.1003 29.2879 -14.1093 -6.81318 0.571354 -2.97866 -15.2373 -13.3636 -0.620144 0.212306 -82.8646 -52.0279 89.4198 -28.606 10.0885 -18.3809 1.29823 31.1405 -7.12201 -2.08506 -0.0856801 -3.48412 11.9863 -9.31906 6.64194 -21.1973 -8.94576 -12.0389 
-187.181 98.7161 -196.706 93.5242 -41.8008 91.8692 -174.526 -1.28239 88.6594 -8.97459 0.814955 0.86144 64.0883 3.19238 0.191379 28.8138 0.0199774 0.361983 174.052 2.90591 87.318 -17.0446 2.96293 0.308888 67.1804 2.03767 8.5132 24.8176 1.12797 1.55699 -0.480669 7.41923 -90.0288 12.036 -0.969175 0.0483976 0.365443 -0.96609 0.0909957 -22.1725 -0.93892 -0.245147 -2.15984 -0.938906 -0.245149 100.235 -50.6198 -85.157 29.5308 -14.0499 -6.67688 0.51541 -3.22216 -15.23 -13.2366 -0.610013 0.175572 -83.0507 -51.9459 89.1366 -28.7601 10.1252 -18.3217 1.47385 31.2116 -7.4103 -2.58197 -0.0912406 -3.4784 11.8735 -9.4022 6.53528 -20.399 -9.12319 -11.7225 
-186.752 98.6781 -196.612 92.5177 -42.018 90.987 -174.826 -1.05503 88.1532 -8.49871 0.64521 0.819886 64.2109 3.42356 0.78756 28.5499 0.054756 0.442807 173.911 3.5593 86.9718 -17.2323 2.80957 0.373872 67.5994 1.87728 8.56073 24.568 1.20648 1.75053 -0.466681 7.36214 -90.0352 12.1501 -0.944192 0.0342842 0.479519 -0.941796 0.0758015 -22.0583 -0.910854 -0.251104 -2.04561 -0.910845 -0.251106 100.267 -50.6513 -85.1075 29.3429 -13.9754 -6.41753 0.597602 -2.99675 -15.1096 -13.6635 -0.615416 0.0490498 -83.1642 -52.8957 89.0551 -28.2006 9.83413 -18.1197 1.50938 31.6067 -7.47295 -2.82276 -0.093159 -3.70007 12.1676 -9.03275 7.43608 -20.5838 -8.87422 -12.4301 
-186.377 98.6191 -196.516 92.4484 -41.9913 91.2354 -174.698 -0.803135 88.3542 -9.36922 0.923985 0.827458 64.5554 3.56767 0.917314 29.7522 -0.0719335 0.546334 174.122 3.25168 87.2307 -17.0462 3.64782 0.191465 67.7449 2.02049 9.34796 25.0505 1.07391 1.53541 -0.466042 7.45277 -90.0601 11.9687 -0.954923 -0.0163189 0.298055 -0.954721 0.025721 -22.2397 -0.905866 -0.302579 -2.22705 -0.905885 -0.302586 100.033 -50.5746 -85.4725 29.4025 -13.9615 -6.55082 0.748515 -2.73678 -14.9186 -13.7717 -0.664327 0.429499 -82.9559 -52.5645 89.3317 -28.3594 10.1936 -18.2582 1.44245 30.96 -7.68358 -2.70027 -0.0921447 -3.97261 13.3986 -8.35582 7.45127 -21.0581 -8.28049 -12.0777 
-185.822 98.5066 -196.447 91.3591 -41.5624 90.2506 -175.256 -0.104236 87.6226 -9.61269 1.89258 0.855243 64.3467 4.47754 2.85842 32.3197 -0.276619 1.3499 173.739 3.91814 86.7384 -17.4215 4.07611 0.443828 68.3626 1.73289 9.47851 24.9009 1.12387 1.67219 -0.47895 7.48991 -90.0379 11.8946 -0.970198 0.028646 0.223959 -0.967992 0.0713196 -22.314 -0.933956 -0.264286 -2.3013 -0.933946 -0.264283 100.111 -50.5895 -85.3509 29.3749 -13.9431 -6.74781 0.564368 -3.30702 -14.948 -13.7207 -0.651373 0.336004 -83.1606 -52.6691 89.0392 -28.1206 10.3461 -18.3913 1.7433 30.1044 -8.31858 -2.01067 -0.0918233 -3.51708 14.8923 -7.88053 6.85012 -21.0003 -7.97231 -10.5482 
-185.084 98.4117 -196.278 91.2059 -41.171 90.3751 -175.408 0.0821082 87.4705 -10.5701 3.43557 0.953639 64.4104 5.27669 4.67946 34.9783 -0.481354 1.98341 173.728 3.95302 86.6871 -18.2719 5.25425 0.337293 68.8453 2.32198 10.8582 24.5484 1.13701 1.15461 -0.463669 7.61511 -90.0601 11.6439 -0.950379 -0.0209339 -0.0267447 -0.950416 0.0209115 -22.5645 -0.900163 -0.305625 -2.55183 -0.900161 -0.305632 99.7974 -50.432 -85.8435 29.5495 -13.7775 -6.49933 0.441966 -3.59334 -15.2618 -14.0754 -0.662663 0.28588 -82.7592 -52.6835 89.6317 -28.0561 10.332 -18.4754 2.50307 30.1273 -9.6117 -1.88885 -0.0915993 -4.27198 16.1799 -6.58061 6.21621 -20.8654 -6.82625 -9.01638 
